<svg xmlns="http://www.w3.org/2000/svg" xmlns:xlink="http://www.w3.org/1999/xlink" fill="none" version="1.1" width="24" height="24" viewBox="0 0 24 24"><g style="mix-blend-mode:passthrough"><g style="mix-blend-mode:passthrough"></g><g style="mix-blend-mode:passthrough"><path d="M19.50000023841858,20.09712125C19.50000023841858,20.09712125,4.500000238418579,20.09712125,4.500000238418579,20.09712125C4.158333238418579,20.09712125,3.875000238418579,19.81745125,3.875000238418579,19.48020125C3.875000238418579,19.14295225,4.158333238418579,18.86328125,4.500000238418579,18.86328125C4.500000238418579,18.86328125,19.50000023841858,18.86328125,19.50000023841858,18.86328125C19.84170023841858,18.86328125,20.12500023841858,19.14295225,20.12500023841858,19.48020125C20.12500023841858,19.81745125,19.84170023841858,20.09712125,19.50000023841858,20.09712125C19.50000023841858,20.09712125,19.50000023841858,20.09712125,19.50000023841858,20.09712125Z" fill="#0C70EE" fill-opacity="1"/></g><g style="mix-blend-mode:passthrough"><path d="M17.850475312500002,4.862690625C16.2338053125,3.266920625,14.6504753125,3.225792625,12.9921353125,4.862690625C12.9921353125,4.862690625,11.9838020125,5.857990624999999,11.9838020125,5.857990624999999C11.9004684125,5.9402406249999995,11.8671355125,6.071850625,11.9004688125,6.187010625C12.5338023125,8.366790625,14.3004753125,10.110620625,16.5088053125,10.735770625C16.5421353125,10.744000625,16.5754753125,10.752220625,16.6088053125,10.752220625C16.7004753125,10.752220625,16.7838053125,10.719320625,16.850475312500002,10.653510625C16.850475312500002,10.653510625,17.850475312500002,9.658220625,17.850475312500002,9.658220625C18.675475312499998,8.852110625,19.0754753125,8.070670625,19.0754753125,7.281020625C19.0838053125,6.466680625,18.6838053125,5.677020625,17.850475312500002,4.862690625C17.850475312500002,4.862690625,17.850475312500002,4.862690625,17.850475312500002,4.862690625Z" fill="#0C70EE" fill-opacity="1"/></g><g style="mix-blend-mode:passthrough"><path d="M15.00939765625,11.48312375C14.76776765625,11.36797375,14.53442765625,11.25281375,14.30943765625,11.12120375C14.12609765625,11.014273750000001,13.95109765625,10.89911375,13.77609765625,10.775723750000001C13.63443765625,10.68524375,13.46776765625,10.55363375,13.30943765625,10.422023750000001C13.29276765625,10.41380375,13.23441765625,10.36444375,13.16774765625,10.29864375C12.89274765625,10.06832375,12.58441765625,9.77220375,12.30941765625,9.44317375C12.28441765625,9.42672375,12.24274765625,9.36914375,12.18441765625,9.29511375C12.10107765625,9.19641375,11.95941765625,9.03189375,11.83441765625,8.84271375C11.734417656249999,8.719323750000001,11.61774765625,8.53836375,11.509417656250001,8.35739375C11.37607765625,8.135307749999999,11.259417656250001,7.91321575,11.14274765625,7.68289875C11.125087656249999,7.64555875,11.10801765625,7.60840775,11.09144765625,7.57147175C10.96847765625,7.29729845,10.60627765625,7.21714235,10.39147765625,7.42916275C10.39147765625,7.42916275,5.6177466562500005,12.14117375,5.6177466562500005,12.14117375C5.50941265625,12.24811375,5.40941265625,12.45375375,5.38441265625,12.59358375C5.38441265625,12.59358375,4.93441275625,15.74399375,4.93441275625,15.74399375C4.85107945625,16.30333375,5.00941265625,16.82977375,5.35941265625,17.183473749999997C5.65941265625,17.47139375,6.07607765625,17.62769375,6.52607765625,17.62769375C6.62607765625,17.62769375,6.72607765625,17.61939375,6.82607765625,17.60299375C6.82607765625,17.60299375,10.02607765625,17.15879375,10.02607765625,17.15879375C10.176077656250001,17.13412375,10.384417656250001,17.03541375,10.484417656249999,16.928473750000002C10.484417656249999,16.928473750000002,15.25219765625,12.22235375,15.25219765625,12.22235375C15.46839765625,12.00886375,15.38689765625,11.64243375,15.10549765625,11.523933750000001C15.07389765625,11.51060375,15.04189765625,11.497003750000001,15.00939765625,11.48312375C15.00939765625,11.48312375,15.00939765625,11.48312375,15.00939765625,11.48312375Z" fill="#0C70EE" fill-opacity="1"/></g><g style="opacity:0;mix-blend-mode:passthrough" transform="matrix(-1,-1.2246469849340659e-16,1.2246469849340659e-16,-1,44,43.484375)"><path d="" fill="#0C70EE" fill-opacity="1"/></g></g></svg>
